<svg width="36" height="24" viewBox="0 0 36 24" fill="none" xmlns="http://www.w3.org/2000/svg">
<g id="&#240;&#159;&#166;&#134; icon &#34;video call&#34;">
<path id="Vector" d="M28.1334 9.2499V2.36657C28.1334 1.2849 27.2484 0.399902 26.1668 0.399902H2.56676C1.4851 0.399902 0.600098 1.2849 0.600098 2.36657V22.0332C0.600098 23.1149 1.4851 23.9999 2.56676 23.9999H26.1668C27.2484 23.9999 28.1334 23.1149 28.1334 22.0332V15.1499L32.6371 19.6536C33.8761 20.8926 36.0001 20.0076 36.0001 18.2572V6.1229C36.0001 4.37257 33.8761 3.48757 32.6371 4.72657L28.1334 9.2499ZM20.2668 14.1666H16.3334V18.0999C16.3334 19.1816 15.4484 20.0666 14.3668 20.0666C13.2851 20.0666 12.4001 19.1816 12.4001 18.0999V14.1666H8.46676C7.3851 14.1666 6.5001 13.2816 6.5001 12.1999C6.5001 11.1182 7.3851 10.2332 8.46676 10.2332H12.4001V6.2999C12.4001 5.21824 13.2851 4.33324 14.3668 4.33324C15.4484 4.33324 16.3334 5.21824 16.3334 6.2999V10.2332H20.2668C21.3484 10.2332 22.2334 11.1182 22.2334 12.1999C22.2334 13.2816 21.3484 14.1666 20.2668 14.1666Z" fill="white"/>
</g>
</svg>
